<svg width="36" height="34" viewBox="0 0 36 34" fill="none" xmlns="http://www.w3.org/2000/svg">
<path d="M34.375 14.6667C33.616 14.6667 33 15.2827 33 16.0417V20.0548L25.6483 12.7049C24.4383 11.493 22.3117 11.493 21.1017 12.7049L12.375 21.4298L10.9816 20.0382C9.77165 18.8264 7.64502 18.8264 6.43502 20.0382L2.75 23.7232V8.70833C2.75 5.81717 3.98383 4.58333 6.875 4.58333H19.7083C20.4673 4.58333 21.0833 3.96733 21.0833 3.20833C21.0833 2.44933 20.4673 1.83333 19.7083 1.83333H6.875C2.442 1.83333 0 4.27533 0 8.70833V27.0417C0 31.4747 2.442 33.9167 6.875 33.9167H28.875C33.308 33.9167 35.75 31.4747 35.75 27.0417V16.0417C35.75 15.2827 35.134 14.6667 34.375 14.6667ZM28.875 31.1667H6.875C4.17633 31.1667 2.93694 30.0739 2.78111 27.5788L8.37824 21.9816C8.61107 21.7506 8.80358 21.7506 9.03642 21.9816L10.7581 23.7031C11.6142 24.5611 13.1341 24.5593 13.9866 23.7031L23.0431 14.6465C23.2759 14.4155 23.4685 14.4155 23.7013 14.6465L32.9964 23.9417V27.0417C33.0001 29.9328 31.7662 31.1667 28.875 31.1667ZM10.5417 10.0833C11.8067 10.0833 12.8333 11.11 12.8333 12.375C12.8333 13.64 11.8067 14.6667 10.5417 14.6667C9.27667 14.6667 8.25 13.64 8.25 12.375C8.25 11.11 9.27667 10.0833 10.5417 10.0833ZM25.6667 5.04167C25.6667 4.28267 26.2827 3.66667 27.0417 3.66667H29.3333V1.375C29.3333 0.616 29.9493 0 30.7083 0C31.4673 0 32.0833 0.616 32.0833 1.375V3.66667H34.375C35.134 3.66667 35.75 4.28267 35.75 5.04167C35.75 5.80067 35.134 6.41667 34.375 6.41667H32.0833V8.70833C32.0833 9.46733 31.4673 10.0833 30.7083 10.0833C29.9493 10.0833 29.3333 9.46733 29.3333 8.70833V6.41667H27.0417C26.2827 6.41667 25.6667 5.80067 25.6667 5.04167Z" fill="#5C58EB"/>
</svg>
