<svg width="20" height="14" viewBox="0 0 20 14" fill="none" xmlns="http://www.w3.org/2000/svg">
<path d="M13.75 1.5H0.75C0.336 1.5 0 1.164 0 0.75C0 0.336 0.336 0 0.75 0H13.75C14.164 0 14.5 0.336 14.5 0.75C14.5 1.164 14.164 1.5 13.75 1.5ZM19.5 6.75C19.5 6.336 19.164 6 18.75 6H0.75C0.336 6 0 6.336 0 6.75C0 7.164 0.336 7.5 0.75 7.5H18.75C19.164 7.5 19.5 7.164 19.5 6.75ZM10.5 12.75C10.5 12.336 10.164 12 9.75 12H0.75C0.336 12 0 12.336 0 12.75C0 13.164 0.336 13.5 0.75 13.5H9.75C10.164 13.5 10.5 13.164 10.5 12.75Z" fill="white"/>
</svg>
