<svg width="24" height="24" viewBox="0 0 24 24" fill="none" xmlns="http://www.w3.org/2000/svg">
<path d="M11.9174 2C8.23736 2 5.25736 4.98 5.25736 8.66V10.76C5.25736 11.44 4.97736 12.46 4.62736 13.04L3.35736 15.16C2.57736 16.47 3.11736 17.93 4.55736 18.41C9.33736 20 14.5074 20 19.2874 18.41C20.6374 17.96 21.2174 16.38 20.4874 15.16L19.2174 13.04C18.8674 12.46 18.5874 11.43 18.5874 10.76V8.66C18.5774 5 15.5774 2 11.9174 2Z" stroke="#333333" stroke-width="1.5" stroke-miterlimit="10" stroke-linecap="round"/>
<path d="M15.3299 18.8199C15.3299 20.6499 13.8299 22.1499 11.9999 22.1499C11.0899 22.1499 10.2499 21.7699 9.64992 21.1699C9.04992 20.5699 8.66992 19.7299 8.66992 18.8199" stroke="#333333" stroke-width="1.5" stroke-miterlimit="10"/>
<path d="M17 8C18.6569 8 20 6.65685 20 5C20 3.34315 18.6569 2 17 2C15.3431 2 14 3.34315 14 5C14 6.65685 15.3431 8 17 8Z" fill="#5C58EB"/>
</svg>
